<svg width="214" height="28" viewBox="0 0 214 28" fill="none" xmlns="http://www.w3.org/2000/svg">
<path d="M18.1364 9.78125C17.9574 9.15909 17.706 8.60937 17.3821 8.1321C17.0582 7.64631 16.6619 7.23722 16.1932 6.90483C15.733 6.56392 15.2045 6.30398 14.608 6.125C14.0199 5.94602 13.3679 5.85653 12.652 5.85653C11.3139 5.85653 10.1378 6.18892 9.12358 6.85369C8.1179 7.51846 7.33381 8.48579 6.77131 9.75568C6.20881 11.017 5.92756 12.5597 5.92756 14.3835C5.92756 16.2074 6.20455 17.7585 6.75852 19.0369C7.3125 20.3153 8.09659 21.2912 9.1108 21.9645C10.125 22.6293 11.3224 22.9616 12.7031 22.9616C13.956 22.9616 15.0256 22.7401 15.9119 22.2969C16.8068 21.8452 17.4886 21.2102 17.9574 20.392C18.4347 19.5739 18.6733 18.6065 18.6733 17.4901L19.7983 17.6562H13.0483V13.4886H24.0043V16.7869C24.0043 19.0881 23.5185 21.0653 22.5469 22.7188C21.5753 24.3636 20.2372 25.6335 18.5327 26.5284C16.8281 27.4148 14.8764 27.858 12.6776 27.858C10.223 27.858 8.06676 27.3168 6.20881 26.2344C4.35085 25.1435 2.90199 23.5966 1.86222 21.5938C0.830966 19.5824 0.315341 17.196 0.315341 14.4347C0.315341 12.3125 0.622159 10.4205 1.2358 8.75852C1.85795 7.08807 2.72727 5.6733 3.84375 4.5142C4.96023 3.35511 6.25994 2.47301 7.7429 1.8679C9.22585 1.26278 10.8324 0.960226 12.5625 0.960226C14.0455 0.960226 15.4261 1.17756 16.7045 1.61222C17.983 2.03835 19.1165 2.64347 20.1051 3.42756C21.1023 4.21165 21.9162 5.14489 22.5469 6.22727C23.1776 7.30114 23.5824 8.48579 23.7614 9.78125H18.1364ZM37.0089 27.8835C34.989 27.8835 33.2504 27.4744 31.793 26.6562C30.3441 25.8295 29.2276 24.6619 28.4435 23.1534C27.6594 21.6364 27.2674 19.8423 27.2674 17.7713C27.2674 15.7514 27.6594 13.9787 28.4435 12.4531C29.2276 10.9276 30.3313 9.73864 31.7546 8.88636C33.1864 8.03409 34.8654 7.60795 36.7915 7.60795C38.087 7.60795 39.293 7.81676 40.4094 8.23438C41.5344 8.64347 42.5146 9.26136 43.3498 10.0881C44.1935 10.9148 44.8498 11.9545 45.3185 13.2074C45.7873 14.4517 46.0217 15.9091 46.0217 17.5795V19.0753H29.4407V15.7003H40.8952C40.8952 14.9162 40.7248 14.2216 40.3839 13.6165C40.043 13.0114 39.57 12.5384 38.9648 12.1974C38.3683 11.848 37.6737 11.6733 36.881 11.6733C36.0543 11.6733 35.3214 11.8651 34.6822 12.2486C34.0515 12.6236 33.5572 13.1307 33.1992 13.7699C32.8413 14.4006 32.658 15.1037 32.6495 15.8793V19.0881C32.6495 20.0597 32.8285 20.8991 33.1864 21.6065C33.5529 22.3139 34.0685 22.8594 34.7333 23.2429C35.3981 23.6264 36.1864 23.8182 37.0984 23.8182C37.7035 23.8182 38.2575 23.733 38.7603 23.5625C39.2631 23.392 39.6935 23.1364 40.0515 22.7955C40.4094 22.4545 40.6822 22.0369 40.8697 21.5426L45.9066 21.875C45.6509 23.0852 45.1268 24.142 44.3342 25.0455C43.5501 25.9403 42.5359 26.6392 41.2915 27.142C40.0558 27.6364 38.6282 27.8835 37.0089 27.8835ZM60.0202 7.86364V11.9545H48.195V7.86364H60.0202ZM50.8796 3.15909H56.3256V21.4659C56.3256 21.9687 56.4023 22.3608 56.5558 22.642C56.7092 22.9148 56.9222 23.1065 57.195 23.2173C57.4762 23.3281 57.8001 23.3835 58.1665 23.3835C58.4222 23.3835 58.6779 23.3622 58.9336 23.3196C59.1893 23.2685 59.3853 23.2301 59.5217 23.2045L60.3782 27.2571C60.1055 27.3423 59.7219 27.4403 59.2276 27.5511C58.7333 27.6705 58.1325 27.7429 57.4251 27.7685C56.1126 27.8196 54.962 27.6449 53.9734 27.2443C52.9933 26.8437 52.2305 26.2216 51.685 25.3778C51.1396 24.5341 50.8711 23.4687 50.8796 22.1818V3.15909ZM72.0021 27.5V1.31818H82.4851C84.4112 1.31818 86.0178 1.60369 87.3047 2.17472C88.5916 2.74574 89.5589 3.53835 90.2067 4.55256C90.8544 5.55824 91.1783 6.71733 91.1783 8.02983C91.1783 9.05256 90.9737 9.9517 90.5646 10.7273C90.1555 11.4943 89.593 12.125 88.8771 12.6193C88.1697 13.1051 87.3601 13.4503 86.4482 13.6548V13.9105C87.4453 13.9531 88.3786 14.2344 89.2479 14.7543C90.1257 15.2741 90.8374 16.0028 91.3828 16.9403C91.9283 17.8693 92.201 18.9773 92.201 20.2642C92.201 21.6534 91.8558 22.8935 91.1655 23.9844C90.4837 25.0668 89.4737 25.9233 88.1357 26.554C86.7976 27.1847 85.1484 27.5 83.1882 27.5H72.0021ZM77.5376 22.9744H82.0504C83.593 22.9744 84.718 22.6804 85.4254 22.0923C86.1328 21.4957 86.4865 20.7031 86.4865 19.7145C86.4865 18.9901 86.3118 18.3509 85.9624 17.7969C85.6129 17.2429 85.1143 16.8082 84.4666 16.4929C83.8274 16.1776 83.0646 16.0199 82.1783 16.0199H77.5376V22.9744ZM77.5376 12.2741H81.6413C82.3999 12.2741 83.0732 12.142 83.6612 11.8778C84.2578 11.6051 84.7266 11.2216 85.0675 10.7273C85.4169 10.233 85.5916 9.64062 85.5916 8.95028C85.5916 8.00426 85.255 7.24148 84.5817 6.66193C83.9169 6.08239 82.9709 5.79261 81.7436 5.79261H77.5376V12.2741ZM104.573 27.8835C102.587 27.8835 100.87 27.4616 99.4208 26.6179C97.9805 25.7656 96.8683 24.581 96.0842 23.0639C95.3001 21.5384 94.908 19.7699 94.908 17.7585C94.908 15.7301 95.3001 13.9574 96.0842 12.4403C96.8683 10.9148 97.9805 9.73011 99.4208 8.88636C100.87 8.03409 102.587 7.60795 104.573 7.60795C106.559 7.60795 108.272 8.03409 109.712 8.88636C111.161 9.73011 112.277 10.9148 113.061 12.4403C113.846 13.9574 114.238 15.7301 114.238 17.7585C114.238 19.7699 113.846 21.5384 113.061 23.0639C112.277 24.581 111.161 25.7656 109.712 26.6179C108.272 27.4616 106.559 27.8835 104.573 27.8835ZM104.598 23.6648C105.502 23.6648 106.256 23.4091 106.861 22.8977C107.466 22.3778 107.922 21.6705 108.229 20.7756C108.544 19.8807 108.702 18.8622 108.702 17.7202C108.702 16.5781 108.544 15.5597 108.229 14.6648C107.922 13.7699 107.466 13.0625 106.861 12.5426C106.256 12.0227 105.502 11.7628 104.598 11.7628C103.686 11.7628 102.919 12.0227 102.297 12.5426C101.684 13.0625 101.219 13.7699 100.904 14.6648C100.597 15.5597 100.444 16.5781 100.444 17.7202C100.444 18.8622 100.597 19.8807 100.904 20.7756C101.219 21.6705 101.684 22.3778 102.297 22.8977C102.919 23.4091 103.686 23.6648 104.598 23.6648ZM123.225 16.1477V27.5H117.779V7.86364H122.969V11.3281H123.199C123.634 10.1861 124.363 9.28267 125.385 8.6179C126.408 7.9446 127.648 7.60795 129.105 7.60795C130.469 7.60795 131.658 7.90625 132.672 8.50284C133.686 9.09943 134.475 9.9517 135.037 11.0597C135.6 12.1591 135.881 13.4716 135.881 14.9972V27.5H130.435V15.9688C130.444 14.767 130.137 13.8295 129.515 13.1562C128.892 12.4744 128.036 12.1335 126.945 12.1335C126.212 12.1335 125.564 12.2912 125.002 12.6065C124.448 12.9219 124.013 13.3821 123.698 13.9872C123.391 14.5838 123.233 15.304 123.225 16.1477ZM145.108 21.8494L145.121 15.3168H145.913L152.203 7.86364H158.455L150.004 17.733H148.713L145.108 21.8494ZM140.173 27.5V1.31818H145.619V27.5H140.173ZM152.446 27.5L146.668 18.9474L150.298 15.0994L158.825 27.5H152.446ZM169.267 27.8835C167.247 27.8835 165.508 27.4744 164.051 26.6562C162.602 25.8295 161.485 24.6619 160.701 23.1534C159.917 21.6364 159.525 19.8423 159.525 17.7713C159.525 15.7514 159.917 13.9787 160.701 12.4531C161.485 10.9276 162.589 9.73864 164.012 8.88636C165.444 8.03409 167.123 7.60795 169.049 7.60795C170.345 7.60795 171.551 7.81676 172.667 8.23438C173.792 8.64347 174.772 9.26136 175.608 10.0881C176.451 10.9148 177.108 11.9545 177.576 13.2074C178.045 14.4517 178.279 15.9091 178.279 17.5795V19.0753H161.699V15.7003H173.153C173.153 14.9162 172.983 14.2216 172.642 13.6165C172.301 13.0114 171.828 12.5384 171.223 12.1974C170.626 11.848 169.931 11.6733 169.139 11.6733C168.312 11.6733 167.579 11.8651 166.94 12.2486C166.309 12.6236 165.815 13.1307 165.457 13.7699C165.099 14.4006 164.916 15.1037 164.907 15.8793V19.0881C164.907 20.0597 165.086 20.8991 165.444 21.6065C165.811 22.3139 166.326 22.8594 166.991 23.2429C167.656 23.6264 168.444 23.8182 169.356 23.8182C169.961 23.8182 170.515 23.733 171.018 23.5625C171.521 23.392 171.951 23.1364 172.309 22.7955C172.667 22.4545 172.94 22.0369 173.127 21.5426L178.164 21.875C177.909 23.0852 177.385 24.142 176.592 25.0455C175.808 25.9403 174.794 26.6392 173.549 27.142C172.314 27.6364 170.886 27.8835 169.267 27.8835ZM181.833 27.5V7.86364H187.113V11.2898H187.318C187.676 10.071 188.277 9.15057 189.12 8.52841C189.964 7.89773 190.936 7.58239 192.035 7.58239C192.308 7.58239 192.602 7.59943 192.917 7.63352C193.233 7.66761 193.51 7.71449 193.748 7.77415V12.6065C193.493 12.5298 193.139 12.4616 192.687 12.402C192.235 12.3423 191.822 12.3125 191.447 12.3125C190.646 12.3125 189.93 12.4872 189.299 12.8366C188.677 13.1776 188.183 13.6548 187.816 14.2685C187.458 14.8821 187.279 15.5895 187.279 16.3906V27.5H181.833ZM212.902 13.4631L207.916 13.7699C207.831 13.3437 207.648 12.9602 207.366 12.6193C207.085 12.2699 206.714 11.9929 206.254 11.7884C205.803 11.5753 205.261 11.4688 204.631 11.4688C203.787 11.4688 203.075 11.6477 202.496 12.0057C201.916 12.3551 201.626 12.8239 201.626 13.4119C201.626 13.8807 201.814 14.277 202.189 14.6009C202.564 14.9247 203.207 15.1847 204.119 15.3807L207.673 16.0966C209.582 16.4886 211.006 17.1193 211.943 17.9886C212.881 18.858 213.349 20 213.349 21.4148C213.349 22.7017 212.97 23.831 212.212 24.8026C211.462 25.7741 210.43 26.5327 209.118 27.0781C207.814 27.6151 206.31 27.8835 204.605 27.8835C202.006 27.8835 199.935 27.3423 198.392 26.2599C196.858 25.169 195.959 23.6861 195.695 21.8111L201.051 21.5298C201.213 22.3224 201.605 22.9276 202.227 23.3452C202.849 23.7543 203.646 23.9588 204.618 23.9588C205.572 23.9588 206.339 23.7756 206.919 23.4091C207.507 23.0341 207.805 22.5526 207.814 21.9645C207.805 21.4702 207.597 21.0653 207.188 20.75C206.778 20.4261 206.148 20.179 205.295 20.0085L201.895 19.331C199.977 18.9474 198.55 18.2827 197.612 17.3366C196.683 16.3906 196.219 15.1847 196.219 13.7188C196.219 12.4574 196.56 11.3707 197.241 10.4588C197.932 9.54688 198.899 8.84375 200.143 8.34943C201.396 7.85511 202.862 7.60795 204.541 7.60795C207.021 7.60795 208.973 8.1321 210.396 9.1804C211.828 10.2287 212.663 11.6562 212.902 13.4631Z" fill="black"/>
</svg>
